<?xml version="1.0" encoding="utf-8"?>
<!-- Generator: Adobe Illustrator 21.0.0, SVG Export Plug-In . SVG Version: 6.00 Build 0)  -->
<svg version="1.1" id="Layer_1" xmlns="http://www.w3.org/2000/svg" xmlns:xlink="http://www.w3.org/1999/xlink" x="0px" y="0px"
	 viewBox="0 0 1000 300" style="enable-background:new 0 0 1000 300;" xml:space="preserve">
<style type="text/css">
	.st0{fill:#33131C;}
	.st1{fill:#511D27;}
	.st2{fill:#FFFFFF;}
	.st3{font-family:'Petersburg-Bold';}
	.st4{font-size:42.017px;}
	.st5{font-size:54.5407px;}
	.st6{font-family:'Petersburg-Regular';}
	.st7{font-size:40.9055px;}
</style>
<g>
	<g>
		<path class="st0" d="M160.9,260.5c-19.9-13-48-36.3-69-73.9c-20.4-36.5-25.7-71.7-26.5-94.8l-0.1-3.2l2.7-1.8
			c15.7-10.7,32.7-19.6,50.4-26.4c14.4-5.6,29.5-9.9,44.7-12.7l1.1-0.2l1.1,0.2c15.2,2.8,30.3,7.1,44.7,12.7
			c17.7,6.8,34.6,15.7,50.4,26.4l2.7,1.8l-0.1,3.2c-0.9,23.1-6.2,58.3-26.5,94.8c-20.9,37.6-49.1,60.9-69,73.9l-3.2,2.1L160.9,260.5
			z"/>
		<path class="st1" d="M164.1,255.6c-15.3-10-45-32.3-67.1-71.9c-21.4-38.3-25.1-74-25.8-92.2c12.4-8.4,28.8-17.9,49.2-25.8
			c16.2-6.3,31.1-10.1,43.7-12.4c12.6,2.3,27.5,6.1,43.7,12.4c20.4,7.9,36.8,17.4,49.2,25.8c-0.7,18.2-4.4,53.9-25.8,92.2
			C209.1,223.3,179.4,245.6,164.1,255.6z"/>
	</g>
	<text transform="matrix(1 0 0 1 104.7814 153.7417)" class="st2 st3 st4">R</text>
	<text transform="matrix(1 0 0 1 192.3781 154.4839)" class="st2 st3 st4">G</text>
	<path class="st2" d="M164.8,201.4c-8.5-0.5-18.2-0.5-28.7,0.5c-5.7,0.5-11,1.3-16,2.2c3.8-7.6,7.5-15.2,11.3-22.8
		c4.2-1.4,11.6-3.3,20.6-2.2c5.3,0.7,9.6,2.1,12.7,3.5c3.1-1.4,7.5-2.8,12.7-3.5c9.1-1.1,16.4,0.7,20.6,2.2
		c3.8,7.6,7.5,15.2,11.3,22.8c-5-0.9-10.3-1.6-16-2.2C183,200.9,173.3,200.9,164.8,201.4z"/>
	<path class="st1" d="M193.4,184.2c1.5,0.6,3,1.3,4.4,1.9c1.7,4.2,3.5,8.4,5.2,12.5c-4.3-0.6-8.9-1.1-14-1.3
		c-7-0.3-13.4-0.1-19.1,0.4c4.3-1.5,9.9-3.1,16.6-3.7c4-0.3,7.6-0.3,10.6,0C195.9,190.8,194.6,187.5,193.4,184.2z"/>
	<g>
		<g>
			<path class="st2" d="M158.7,91.9c-0.4-0.3-1.3-1.2-1.9-2.6c-0.4-1-0.3-2.3-0.1-5.1c0.1-1.3,0.1-1.6,0-2.4c-0.1-0.9-0.3-2.2-1.3-3
				c-0.3-0.2-0.8-0.6-1.6-0.7c-0.2,0-1-0.1-2.1,0.5c-0.4,0.2-0.6,0.4-0.7,0.4c-0.8,0.6-2.5,1.7-4.9,3.2c-1.3,0.7-2.3,1.2-3.1,1.5
				c-5.6,2.6-10.5,3.8-13.3,4.4h0c-3,0.7-7,1.6-11.9,2.4c0.1,0.5,0.2,1.4,0.9,2.3c1,1.3,2.4,1.6,3.2,1.8c1.2,0.3,2.2,0.1,3.7-0.1
				c1.5-0.2,2.6-0.6,2.9-0.7c4.4-1.5,12.9-5.9,14.3-6.6c4.8-2.5,8.7-4.2,8.7-4.1c0,0-1.2,0.7-6.9,3.5c-2.9,1.7-5.3,2.9-6.9,3.7
				c-2,1-4,2-6.1,3c-1.6,0.8-3.7,1.7-4.5,3.6c-0.4,1-0.2,1.5-0.1,1.6c0.2,0.3,0.6,0.7,1.8,0.8c2.1,0.2,3.8-0.7,5.2-1.4
				c3.3-1.6,4.9-2.4,5.2-2.6c4.7-2.9,9.1-6.1,11.5-7.9c-6.3,5-9.2,7.2-10.5,8.1c-0.4,0.3-0.8,0.6-1.5,1.1c-1.5,1.2-2.2,1.9-2.8,2.8
				c-0.4,0.6-0.7,1.1-0.5,1.6c0.1,0.2,0.4,0.6,1.9,0.6c3,0,5.7-1.8,5.9-1.9c0.3-0.2,0.6-0.4,1-0.7c0,0,0-0.1,0-0.1
				c-0.6-1.6-0.4-3.5,0.6-5.1c1.5-2.4,4.4-2.9,6.1-3.1c0.4-0.1,0.9-0.1,1.3-0.1l0,0l0.1,0c0.1,0,0.2,0,0.3,0c1.6,0,3.3,0.3,4.9,1
				c0.1,0,2.3,0.9,3.5,2.7c0.4,0.5,0.5,1,0.4,1.4c-0.1,0.6-0.7,0.9-1.2,1.1c-1.3,0.7-2.7,0.8-3.7,0.8c-0.9,0-1.4-0.1-1.4-0.1
				c-0.9-0.2-1.7-0.3-2.6-0.9c-0.3-0.2-0.5-0.3-0.7-0.5c-0.3-0.3-0.5-0.4-0.9-0.5c-0.1,0-0.2,0-0.3,0c-0.4,0-0.9,0.1-1.2,0.5
				c-0.3,0.4-0.3,0.9-0.2,1.2c0.1,0.4,0.5,0.8,1.9,1.4c1.7,0.7,3.1,0.9,4.5,1.1c2.1,0.3,2.2,0.3,2.3,0.3c0,0,0.1,0,0.2,0
				c0.2,0,0.6,0.1,1.2,0.2c1,0.1,1.8,0.2,2.5,0.3l0.2,0c0-2.5,0-4.9,0-7.4C161.3,93.3,160,93,158.7,91.9z M147.6,102.3
				c-1-0.5-2.1-1.2-2.9-2.3c-0.1,0.1-0.1,0.1-0.2,0.1c-0.2,0.2-0.9,0.7-1,1.6c0,0.1-0.2,0.9,0.3,1.4c0.5,0.7,1.6,0.6,2.1,0.5
				c1-0.1,1.8-0.6,2.4-1C148.1,102.6,147.9,102.4,147.6,102.3z"/>
			<path class="st2" d="M166.7,93.4c0,2.5,0,4.9,0,7.4l0.2,0c0.7-0.1,1.5-0.2,2.5-0.3c0.6-0.1,1-0.1,1.2-0.2c0.1,0,0.1,0,0.2,0
				c0,0,0.1,0,2.3-0.3c1.4-0.2,2.8-0.4,4.5-1.1c1.4-0.6,1.7-0.9,1.9-1.4c0.1-0.3,0.1-0.8-0.2-1.2c-0.3-0.4-0.8-0.5-1.2-0.5
				c-0.1,0-0.2,0-0.3,0c-0.4,0.1-0.6,0.2-0.9,0.5c-0.2,0.1-0.4,0.3-0.7,0.5c-0.9,0.6-1.7,0.7-2.6,0.9c0,0-0.6,0.1-1.4,0.1
				c-1,0-2.4-0.1-3.7-0.8c-0.5-0.2-1-0.6-1.2-1.1c-0.1-0.4,0-0.9,0.4-1.4c1.2-1.8,3.4-2.6,3.5-2.7c1.6-0.7,3.2-1,4.9-1
				c0.1,0,0.2,0,0.3,0l0.1,0l0,0c0.4,0,0.9,0.1,1.3,0.1c1.7,0.3,4.5,0.7,6.1,3.1c1,1.5,1.2,3.5,0.6,5.1c0,0,0,0.1,0,0.1
				c0.3,0.2,0.6,0.5,1,0.7c0.2,0.1,2.9,1.9,5.9,1.9c1.5,0,1.8-0.4,1.9-0.6c0.2-0.4-0.1-1-0.5-1.6c-0.6-0.9-1.3-1.6-2.8-2.8
				c-0.7-0.6-1.1-0.9-1.5-1.1c-1.3-0.9-4.2-3.1-10.5-8.1c2.4,1.8,6.8,5.1,11.5,7.9c0.3,0.2,1.9,1,5.2,2.6c1.4,0.7,3.1,1.5,5.2,1.4
				c1.2-0.1,1.6-0.5,1.8-0.8c0.1-0.1,0.3-0.6-0.1-1.6c-0.8-1.9-2.9-2.9-4.5-3.6c-2-1-4-2-6.1-3c-1.7-0.8-4.1-2-6.9-3.7
				c-5.7-2.9-6.9-3.5-6.9-3.5c0,0,4,1.7,8.7,4.1c1.4,0.7,9.9,5.1,14.3,6.6c0.2,0.1,1.3,0.4,2.9,0.7c1.5,0.2,2.5,0.4,3.7,0.1
				c0.7-0.2,2.2-0.5,3.2-1.8c0.7-0.9,0.8-1.8,0.9-2.3c-4.9-0.8-8.9-1.7-11.9-2.4h0c-2.8-0.7-7.7-1.9-13.3-4.4
				c-0.8-0.3-1.8-0.9-3.1-1.5c-2.4-1.6-4.1-2.6-4.9-3.2c-0.1-0.1-0.3-0.2-0.7-0.4c-1.2-0.6-1.9-0.5-2.1-0.5
				c-0.8,0.1-1.3,0.5-1.6,0.7c-1,0.9-1.2,2.1-1.3,3c-0.1,0.7,0,1.1,0,2.4c0.2,2.7,0.2,4.1-0.1,5.1c-0.5,1.4-1.5,2.2-1.9,2.6
				C168.7,93,167.3,93.3,166.7,93.4z M180.3,102.7c0.6,0.5,1.4,0.9,2.4,1c0.5,0.1,1.6,0.2,2.1-0.5c0.4-0.5,0.3-1.3,0.3-1.4
				c-0.2-0.9-0.8-1.4-1-1.6c-0.1,0-0.1-0.1-0.2-0.1c-0.8,1.2-2,1.8-2.9,2.3C180.8,102.4,180.5,102.6,180.3,102.7z"/>
		</g>
		<g>
			<path class="st2" d="M162.7,118.6C162.7,118.6,162.7,118.6,162.7,118.6c0.6-0.3,0.8-0.4,1.7-0.6c0.4-0.1,0.8-0.2,1.4-0.4
				c0.3-0.1,0.7-0.2,1.1-0.3c0.8-0.3,1.4-0.5,1.9-0.6c1.2-0.4,1.6-0.7,2-1c1.4-1.1,2.1-2.4,2.3-2.6c0.2-0.4,1.5-3.1,0.3-6
				c-0.5-1.2-1.3-2.1-2.1-2.7c-0.6-0.5-1.1-0.8-1.5-1c-0.3-0.2-0.6-0.3-0.9-0.5c-0.6-0.3-1.2-0.5-2.1-0.7c-0.1,0-0.1,0-0.2-0.1
				c-0.3-0.1-0.5-0.1-0.8-0.2c-0.4-0.1-0.9-0.2-1.5-0.3c-0.4-0.1-1-0.2-1.6-0.2c-0.3,0-0.6-0.1-0.9-0.1c-0.8-0.1-1.7-0.2-2.8-0.4
				c-1-0.1-1.4-0.2-1.4-0.2c0,0,0,0,0,0c0,0-0.4-0.1-2.2-0.3c-1.4-0.2-2.9-0.4-4.6-1.1c-1.4-0.6-1.9-1-2-1.6
				c-0.1-0.5-0.1-1.1,0.2-1.5c0.6-0.7,1.6-0.6,1.8-0.6c0.7,0.1,0.9,0.5,1.7,1c0.9,0.5,1.6,0.7,2.5,0.8c0,0,2.6,0.5,5-0.7
				c0.5-0.2,0.9-0.5,1-1c0.1-0.3,0-0.6-0.3-1.2c-1.2-1.7-3.4-2.5-3.4-2.5c-1.1-0.4-2.8-1-5.1-1c0,0,0,0,0,0c-0.4,0-0.9,0-1.4,0.1
				c-1.7,0.2-4.4,0.7-5.9,3c-0.8,1.3-1.2,3.2-0.6,4.8c0,0.1,0.1,0.1,0.1,0.2c0.1,0.3,0.2,0.5,0.4,0.7c0.7,1,1.8,1.7,2.8,2.2
				c0.3,0.1,0.6,0.3,0.9,0.4c2.8,1.2,5.7,1.5,8.8,1.8c1.7,0.2,3.5,0.3,5.3,0.6c0.5,0.1,1.1,0.2,1.6,0.3c0.5,0.1,1,0.2,1.5,0.3
				c0.2,0,0.3,0.1,0.5,0.1c0.7,0.2,2.1,0.6,2.9,1.8c0.9,1.4,0.8,3.2,0.2,4.5c-0.8,1.7-2.4,2.4-3.6,2.9c-0.2,0.1-0.4,0.1-0.5,0.2
				c-0.4,0.1-0.7,0.2-0.9,0.3c-0.4,0.1-0.7,0.1-1.5,0.3c0,0-0.1,0-0.1,0c-0.9,0.2-1.8,0.5-2.8,0.9c-1.3,0.6-2.6,1.4-3.4,2.7
				c-1,1.6-0.9,3.2-0.9,3.7c0.2,3.7,3.5,5.8,3.7,5.9c0,0,0.1,0,0.1,0.1c0.9,0.6,2.1,1,3.3,1.3c0.6,0.2,1.1,0.3,1.7,0.4
				c0.5,0.1,1,0.2,1.4,0.3c0,0,0,0,0,0c0.8,0.1,1.8,0.3,2.6,1.1c1.1,1.1,1.1,2.7,1.1,2.7c-0.1,1.5-1,2.4-1.3,2.6
				c-0.7,0.7-1.4,0.8-2.4,1.1c-0.3,0.1-0.6,0.1-1,0.2c-0.1,0-0.3,0.1-0.4,0.1h0c-0.6,0.1-1.1,0.3-1.7,0.4c-0.7,0.2-1.5,0.4-2.1,0.8
				c-0.7,0.3-1.3,0.7-1.8,1.2c-0.3,0.3-2.4,2.2-2.1,4.6c0.3,2.7,3.2,4.2,4.1,4.6c0.2,0.1,0.3,0.1,0.3,0.1c0.4,0.2,1,0.3,1.6,0.5
				c0.4,0.1,0.9,0.2,1.4,0.3c0.1,0,0.2,0,0.3,0.1c0.5,0.1,1,0.2,1.4,0.3c0.7,0.2,1.2,0.4,1.6,0.8c0.2,0.2,0.8,0.9,0.9,1.8
				c0,1.2-1,2.1-1.3,2.3c-0.3,0.3-0.6,0.3-1.2,0.5c-0.3,0.1-0.8,0.2-1.4,0.4c-0.1,0-0.3,0.1-0.4,0.1c-0.5,0.2-0.9,0.3-1.3,0.4
				c-0.4,0.1-0.7,0.2-0.9,0.3c0,0,0,0-0.1,0c-0.8,0.4-1.9,1-2.6,2.2c-0.2,0.4-0.9,1.7-0.3,3.2c0.7,1.6,2.5,2,2.7,2
				c-0.2-0.1-1.3-1-1.4-2.5c-0.1-1.4,0.8-2.4,1.1-2.7c0.4-0.4,0.8-0.7,1.5-0.9c0.4-0.1,0.8-0.3,1.3-0.5c0.1,0,0.3-0.1,0.4-0.1
				c0.5-0.2,1-0.3,1.3-0.4c0.5-0.1,0.9-0.2,1.4-0.4c0.2-0.1,0.4-0.2,0.6-0.3c0.6-0.3,1.1-0.6,1.6-1.2c0.3-0.4,1.2-1.5,1.1-3
				c-0.1-1.4-0.8-2.3-1.1-2.7c-0.2-0.2-0.5-0.5-1.3-0.9c-0.2-0.1-0.4-0.2-0.7-0.3c-0.6-0.2-1.1-0.4-1.5-0.5
				c-0.5-0.1-0.9-0.2-1.4-0.3c-0.6-0.1-1.1-0.2-1.7-0.4c-0.4-0.1-0.8-0.3-1.2-0.5c-0.7-0.3-1.3-0.7-1.7-1.4
				c-0.1-0.2-0.6-0.9-0.5-1.8c0-1.2,0.8-2,1-2.2c0.7-0.7,1.6-1,2.1-1.1c0.1,0,0.2-0.1,0.4-0.1c0.4-0.1,1-0.3,1.7-0.5
				c0.4-0.1,0.9-0.3,1.4-0.4c0.9-0.3,1.7-0.6,2.4-0.9c0,0,0.1,0,0.1,0c1.1-0.5,3.4-1.6,4.2-3.9c0.7-2.1-0.2-4.5-1.5-5.8
				c-0.5-0.6-1.1-0.9-1.7-1.2c-0.4-0.2-0.8-0.4-1.2-0.5c-1-0.4-1.4-0.5-2.3-0.6c-0.4-0.1-0.8-0.2-1.4-0.3c0,0-0.1,0-0.1,0
				c-0.6-0.2-1.1-0.3-1.6-0.4c-1.5-0.5-2.4-0.9-3-1.7c-1-1.4-0.6-3.2-0.5-3.3C159.6,120.2,161.4,119.3,162.7,118.6z M157.2,93.3
				c0.2,0.1,0.9,0.2,1,0.7c0.1,0.4-0.3,0.8-0.7,1c-0.4,0.2-0.8,0-1.1-0.2c-0.6-0.3-1-0.7-1.3-1C155.4,93.5,156.2,93,157.2,93.3z"/>
			<path class="st2" d="M183.7,94c-1.4-2.3-4.2-2.7-5.9-3c-0.5-0.1-0.9-0.1-1.4-0.1c0,0,0,0,0,0c0,0,0,0,0,0c-2.2-0.1-4,0.5-5,1
				c0,0-2.2,0.8-3.4,2.5c-0.4,0.6-0.4,0.9-0.3,1.2c0.1,0.4,0.5,0.7,1,1c2.3,1.2,5,0.7,5,0.7c0.8-0.2,1.6-0.3,2.5-0.8
				c0.8-0.5,1-0.9,1.7-1c0.1,0,1.2-0.2,1.8,0.6c0.4,0.4,0.4,1.1,0.2,1.5c-0.2,0.6-0.7,1-2,1.6c-1.7,0.7-3.2,0.9-4.6,1.1
				c-1.8,0.3-2.2,0.3-2.2,0.3c0,0,0,0,0,0c-0.1,0-0.4,0.1-1.4,0.2c-1.1,0.2-2,0.3-2.8,0.4c-0.3,0-0.6,0.1-0.9,0.1
				c-0.6,0.1-1.1,0.2-1.5,0.2c-0.6,0.1-1.1,0.2-1.6,0.3c-0.2,0.1-0.4,0.1-0.7,0.2c-0.1,0-0.1,0-0.2,0.1c-0.8,0.2-1.4,0.4-2,0.7
				c-0.3,0.1-0.6,0.3-0.9,0.5c-0.4,0.3-1,0.6-1.5,1c-0.8,0.6-1.6,1.5-2.1,2.7c-1.2,2.9,0.1,5.7,0.3,6c0.1,0.3,0.8,1.6,2.3,2.6
				c0.4,0.3,0.8,0.5,2,1c0.5,0.2,1.1,0.4,1.9,0.6c0.3,0.1,0.7,0.2,0.9,0.3c0.7,0.2,1.2,0.4,1.6,0.5c0.7,0.2,1,0.3,1.4,0.5
				c0.1,0,0.1,0.1,0.2,0.1c1.3,0.6,3,1.6,3.5,3.4c0,0.1,0.5,1.9-0.5,3.3c-0.6,0.9-1.6,1.3-3.2,1.8c-0.4,0.1-0.9,0.2-1.3,0.4
				c0,0-0.1,0-0.1,0c-0.7,0.2-1.2,0.3-1.7,0.4c-0.7,0.1-1.2,0.2-2.1,0.6c-0.4,0.2-0.8,0.3-1.2,0.5c-0.6,0.3-1.2,0.7-1.7,1.2
				c-1.3,1.4-2.2,3.7-1.5,5.8c0.7,2.3,3,3.4,4.2,3.9c0,0,0.1,0,0.1,0c0.6,0.3,1.4,0.5,2.1,0.8c0.6,0.2,1.2,0.4,1.7,0.5
				c0.5,0.1,1,0.3,1.4,0.4c0.3,0.1,0.5,0.1,0.7,0.2c0.4,0.1,1.3,0.3,2,1.1c0.2,0.2,1,1,1,2.2c0,0.9-0.4,1.6-0.5,1.8
				c-0.4,0.7-1,1.1-1.7,1.4c-0.6,0.3-1.1,0.5-1.5,0.6c-0.5,0.1-0.9,0.2-1.4,0.3c-0.5,0.1-1.1,0.2-1.7,0.4c-0.4,0.1-0.8,0.3-1.2,0.4
				c-0.3,0.1-0.5,0.2-0.7,0.3c-0.7,0.4-1.1,0.7-1.3,0.9c-0.3,0.4-1.1,1.3-1.2,2.7c-0.1,1.6,0.8,2.7,1.1,3c0.5,0.6,1,0.9,1.6,1.2
				c0.2,0.1,0.4,0.2,0.6,0.3c0.4,0.1,0.7,0.2,1,0.3c0.5,0.1,1,0.2,1.7,0.5c0.1,0,0.3,0.1,0.4,0.1c0.4,0.1,0.7,0.2,0.9,0.3
				c0.9,0.3,1.4,0.6,1.9,1.1c0.3,0.3,1.2,1.3,1.1,2.7c-0.1,1.5-1.2,2.3-1.4,2.5c0.2,0,2-0.4,2.7-2c0.6-1.5-0.1-2.8-0.3-3.2
				c-0.7-1.3-1.8-1.8-2.6-2.2c0,0,0,0-0.1,0c-0.3-0.1-0.7-0.3-1.3-0.5c-0.3-0.1-0.6-0.2-0.9-0.3c-0.2,0-0.3-0.1-0.4-0.1
				c-0.9-0.3-1.4-0.4-1.7-0.5c-0.4-0.1-0.6-0.2-0.8-0.4c-0.2-0.2-1.3-1-1.3-2.3c0-1,0.7-1.7,0.9-1.8c0.4-0.4,0.7-0.6,1.2-0.7
				c0.4-0.1,1-0.2,1.7-0.4c0.1,0,0.2,0,0.3-0.1c0.4-0.1,0.7-0.2,1.1-0.3c0.8-0.2,1.4-0.4,2-0.6c0,0,0.1-0.1,0.3-0.1
				c1-0.4,3.9-2,4.1-4.6c0.3-2.4-1.8-4.3-2.1-4.6c-0.5-0.5-1.1-0.8-1.8-1.2c-0.8-0.3-1.6-0.6-2.4-0.8c-0.5-0.1-0.9-0.2-1.4-0.3h0
				c-0.1,0-0.3-0.1-0.4-0.1c-0.5-0.1-0.9-0.2-1.3-0.3c-0.8-0.2-1.5-0.4-2.1-1c-0.3-0.2-1.2-1.2-1.3-2.6c0-0.1,0-1.6,1.1-2.7
				c0.7-0.7,1.6-0.9,2.3-1.1c0.1,0,0.2,0,0.3-0.1c0.4-0.1,0.9-0.2,1.4-0.3c0.5-0.1,0.9-0.2,1.4-0.3c1.2-0.3,2.5-0.7,3.5-1.4
				c0,0,0.1,0,0.1-0.1c0.1-0.1,3.4-2.2,3.7-5.9c0-0.5,0.1-2.1-0.9-3.7c-0.8-1.3-2.1-2.1-3.4-2.7c-1-0.4-2.1-0.7-3-1c0,0,0,0,0,0
				c-0.8-0.2-1.1-0.2-1.5-0.3c-0.2,0-0.5-0.1-0.9-0.3c-0.2-0.1-0.5-0.2-0.7-0.3c-1.2-0.5-2.7-1.3-3.4-2.8c-0.6-1.3-0.7-3.2,0.2-4.5
				c0.8-1.2,2.2-1.7,2.9-1.8c0.1,0,0.3-0.1,0.4-0.1c0.5-0.1,1.1-0.3,1.6-0.4c0.5-0.1,1-0.2,1.5-0.3c1.9-0.3,3.7-0.4,5.4-0.6
				c3-0.3,5.9-0.6,8.8-1.8c0.3-0.1,0.6-0.3,0.9-0.4c1.1-0.5,2.1-1.2,2.8-2.2c0.2-0.2,0.3-0.5,0.4-0.8c0-0.1,0.1-0.1,0.1-0.2
				C184.9,97.2,184.5,95.4,183.7,94z M172.3,94.7c-0.3,0.1-0.7,0.3-1.1,0.2c-0.4-0.1-0.8-0.6-0.7-1c0.1-0.5,0.8-0.6,1-0.7
				c0.9-0.2,1.8,0.2,2.1,0.5C173.4,94,173,94.5,172.3,94.7z"/>
		</g>
		<path class="st2" d="M165.9,95.1v0.2h0C165.9,95.3,165.9,95.2,165.9,95.1z"/>
		<g>
			<g>
				<path class="st2" d="M165.9,82.5v12.7c0,0.1,0,0.1,0,0.2c0,0.3,0,0.5,0,0.8c0,0.5,0,1,0,1.5l0,3l0,6.1l-0.1,24.2l-0.1,36.3
					l-0.4,3c-0.1,1-0.2,2-0.4,3c-0.1,1-0.3,2-0.4,3c-0.1,1-0.3,2-0.4,3c-0.2-1-0.3-2-0.4-3c-0.1-1-0.3-2-0.4-3c-0.1-1-0.2-2-0.4-3
					l-0.3-3l0.1-36.3l0.1-24.2l0-6.1l0-3c0-0.5,0-1,0-1.5c0-0.3,0-0.5,0-0.8V82.5H165.9z"/>
			</g>
			<circle class="st2" cx="164.2" cy="77.9" r="3.9"/>
		</g>
	</g>
</g>
<text transform="matrix(1 0 0 1 319.9469 118.9731)" class="st3 st5">Dr Rajendra Gode</text>
<text transform="matrix(1 0 0 1 319.9469 188.5092)" class="st6 st7">multispeciality &amp; general hospital</text>
</svg>
