<svg id="Layer_1" data-name="Layer 1" xmlns="http://www.w3.org/2000/svg" width="678.8701" height="157.7916" viewBox="0 0 678.8701 157.7916">
  <defs>
    <style>
      .cls-1 {
        fill: #33131c;
      }

      .cls-2 {
        fill: #511d27;
      }

      .cls-3, .cls-4 {
        font-size: 30.8152px;
      }

      .cls-3, .cls-4, .cls-5 {
        fill: #fff;
      }

      .cls-3, .cls-4, .cls-6 {
        font-family: Petersburg-Bold, Petersburg;
        font-weight: 700;
      }

      .cls-3 {
        letter-spacing: 0.02em;
      }

      .cls-4 {
        letter-spacing: 0.02em;
      }

      .cls-6 {
        font-size: 48px;
      }

      .cls-7 {
        font-size: 36px;
        font-family: Petersburg-Regular, Petersburg;
      }
    </style>
  </defs>
  <g>
    <g>
      <path class="cls-1" d="M382.6943,349.9468a154.5244,154.5244,0,0,1-70.06-123.7481l-.0886-2.3681,1.96-1.3316a183.6246,183.6246,0,0,1,69.7454-28.6745l.7808-.1446.7807.1446A183.6682,183.6682,0,0,1,455.55,222.4981l1.961,1.3316-.0886,2.369A154.54,154.54,0,0,1,387.37,349.946l-2.338,1.5255Z" transform="translate(-312.546 -193.6799)"/>
      <path class="cls-2" d="M385.0322,346.3616a150.2475,150.2475,0,0,1-68.1215-120.3227,179.35,179.35,0,0,1,68.1215-28.0061,179.3854,179.3854,0,0,1,68.114,28.0061,150.2655,150.2655,0,0,1-68.114,120.3227Z" transform="translate(-312.546 -193.6799)"/>
    </g>
    <text class="cls-3" transform="translate(29.0001 77.973)">R</text>
    <text class="cls-4" transform="translate(93.2433 78.5169)">G</text>
    <path class="cls-5" d="M385.5938,306.6017a141.1417,141.1417,0,0,0-21.0609.3759c-4.1574.3862-8.0673.936-11.7076,1.5854q4.1463-8.3539,8.2929-16.7078a34.05,34.05,0,0,1,15.1224-1.5854,33.5689,33.5689,0,0,1,9.3256,2.5677A33.6012,33.6012,0,0,1,394.9,290.27a34.076,34.076,0,0,1,15.1224,1.5854l8.2929,16.7078c-3.64-.6495-7.55-1.1993-11.7077-1.5854A140.9776,140.9776,0,0,0,385.5938,306.6017Z" transform="translate(-312.546 -193.6799)"/>
    <path class="cls-2" d="M406.5024,294.0052l3.2522,1.3822,3.8212,9.1872a102.7657,102.7657,0,0,0-24.2283-.65,46.9594,46.9594,0,0,1,20-2.683Q407.9253,297.6232,406.5024,294.0052Z" transform="translate(-312.546 -193.6799)"/>
    <g>
      <g>
        <path class="cls-5" d="M381.1164,226.3127a4.49,4.49,0,0,1-1.3671-1.8776,10.6686,10.6686,0,0,1-.09-3.7246,8.3792,8.3792,0,0,0,.0306-1.7286,3.2764,3.2764,0,0,0-.9311-2.2217,2.2954,2.2954,0,0,0-1.1568-.5411,2.6831,2.6831,0,0,0-1.5753.3352,3.64,3.64,0,0,0-.5215.3045c-.62.4316-1.8382,1.2291-3.6062,2.3662-.9312.493-1.7156.8677-2.2721,1.124a52.0292,52.0292,0,0,1-9.75,3.26h-.0022c-2.1713.5324-5.1334,1.1831-8.7134,1.744a3.4326,3.4326,0,0,0,.6616,1.68,3.7836,3.7836,0,0,0,2.3137,1.3233,6.63,6.63,0,0,0,2.7036-.09,13.8348,13.8348,0,0,0,2.0967-.5105,106.7193,106.7193,0,0,0,10.4771-4.8376c3.5011-1.7988,6.3976-3.07,6.4151-3.0345,0,.0219-.8589.482-5.0633,2.5985a51.4235,51.4235,0,0,1-5.0917,2.7255c-1.503.6989-2.9666,1.4767-4.463,2.1866-1.1677.5543-2.7189,1.2773-3.3193,2.66a1.28,1.28,0,0,0-.09,1.1568c.1227.2191.4185.4864,1.3212.5543a7.3019,7.3019,0,0,0,3.8166-.99c2.4078-1.1809,3.6128-1.77,3.8144-1.893,3.4529-2.1011,6.7087-4.5,8.4439-5.8147-4.636,3.6588-6.75,5.26-7.699,5.9265-.287.2015-.5521.41-1.0779.8259a7.822,7.822,0,0,0-2.04,2.0223c-.2717.436-.51.83-.3593,1.1415.057.1183.2695.4294,1.38.4206a8.912,8.912,0,0,0,4.3271-1.3825c.2388-.16.4733-.322.7055-.4929-.0088-.0219-.0153-.0417-.0219-.0636a4.35,4.35,0,0,1,.44-3.707c1.1173-1.7966,3.2053-2.11,4.4542-2.2961a8.2774,8.2774,0,0,1,.9443-.0877l.0022-.0022.0963-.0022c.068-.0022.1425-.0022.2148-.0022a9.1728,9.1728,0,0,1,3.5821.7428,6.0693,6.0693,0,0,1,2.5613,1.9477,1.2658,1.2658,0,0,1,.276,1.0363,1.4052,1.4052,0,0,1-.8435.8414,6.2235,6.2235,0,0,1-2.71.5806,6.143,6.143,0,0,1-1.0626-.0811,4.9564,4.9564,0,0,1-1.88-.631,5.1574,5.1574,0,0,1-.4886-.3418,1.3829,1.3829,0,0,0-.69-.3483,1.7471,1.7471,0,0,0-.2212-.0154,1.07,1.07,0,0,0-.8677.355,1.0159,1.0159,0,0,0-.1445.9092c.0985.3111.37.6,1.3737,1.0056a13.3068,13.3068,0,0,0,3.3149.8c1.5731.2257,1.65.2454,1.68.2542.0285.0022.0679.0087.1183.0153.1556.0219.4229.0592.8786.12.7121.0964,1.3124.18,1.825.25l.1688.0241c.0087-1.81.0153-3.626.0241-5.4379A4.9288,4.9288,0,0,1,381.1164,226.3127Zm-8.1568,7.6245a5.39,5.39,0,0,1-2.1472-1.6936c-.0416.04-.0832.0767-.1205.11a2.0661,2.0661,0,0,0-.7361,1.17,1.3543,1.3543,0,0,0,.21,1.0517c.401.4908,1.1787.41,1.56.37a3.6292,3.6292,0,0,0,1.7943-.7515C373.3408,234.1169,373.15,234.0314,372.96,233.9372Z" transform="translate(-312.546 -193.6799)"/>
        <path class="cls-5" d="M386.9838,227.3951c.0088,1.8119.0153,3.6282.0241,5.4379l.1687-.0241c.5127-.07,1.113-.1534,1.825-.25.4558-.0613.7231-.0986.8786-.12.05-.0066.09-.0131.1183-.0153.0307-.0088.1074-.0285,1.68-.2542a13.3078,13.3078,0,0,0,3.3149-.8c1.0034-.4053,1.2751-.6945,1.3737-1.0056a1.016,1.016,0,0,0-.1446-.9092,1.07,1.07,0,0,0-.8676-.355,1.7474,1.7474,0,0,0-.2213.0154,1.3826,1.3826,0,0,0-.69.3483,5.1836,5.1836,0,0,1-.4886.3418,4.9574,4.9574,0,0,1-1.88.631,6.1417,6.1417,0,0,1-1.0626.0811,6.2235,6.2235,0,0,1-2.71-.5806,1.4054,1.4054,0,0,1-.8435-.8414,1.2663,1.2663,0,0,1,.2761-1.0363,6.0693,6.0693,0,0,1,2.5612-1.9477,9.1737,9.1737,0,0,1,3.5822-.7428c.0723,0,.1468,0,.2147.0022l.0964.0022.0022.0022a8.2816,8.2816,0,0,1,.9443.0877c1.2488.1862,3.3368.4995,4.4542,2.2961a4.35,4.35,0,0,1,.44,3.707c-.0066.0219-.0132.0417-.0219.0636.2322.1709.4666.333.7054.4929a8.9124,8.9124,0,0,0,4.3271,1.3825c1.1108.0088,1.3234-.3023,1.38-.4206.1512-.3111-.0876-.7055-.3593-1.1415a7.822,7.822,0,0,0-2.04-2.0223c-.5258-.4162-.7909-.6244-1.0779-.8259-.9487-.6661-3.0629-2.2677-7.699-5.9265,1.7353,1.3145,4.991,3.7136,8.4439,5.8147.2016.1227,1.4066.7121,3.8145,1.893a7.3017,7.3017,0,0,0,3.8166.99c.9027-.0679,1.1984-.3352,1.3211-.5543a1.28,1.28,0,0,0-.09-1.1568c-.6-1.3825-2.1515-2.1055-3.3193-2.66-1.4964-.71-2.96-1.4877-4.4629-2.1866a51.4116,51.4116,0,0,1-5.0918-2.7255c-4.2044-2.1165-5.0633-2.5766-5.0633-2.5985.0176-.035,2.914,1.2357,6.4151,3.0345a106.73,106.73,0,0,0,10.4771,4.8376,13.8348,13.8348,0,0,0,2.0967.5105,6.63,6.63,0,0,0,2.7037.09,3.7837,3.7837,0,0,0,2.3136-1.3233,3.434,3.434,0,0,0,.6617-1.68c-3.58-.5609-6.5422-1.2116-8.7134-1.744h-.0022a52.03,52.03,0,0,1-9.75-3.26c-.5565-.2563-1.3409-.631-2.272-1.124-1.7681-1.1371-2.9863-1.9346-3.6063-2.3662a3.643,3.643,0,0,0-.5214-.3045,2.6832,2.6832,0,0,0-1.5753-.3352,2.2959,2.2959,0,0,0-1.1569.5411,3.2764,3.2764,0,0,0-.9311,2.2217,8.3808,8.3808,0,0,0,.0307,1.7286,10.6678,10.6678,0,0,1-.09,3.7246,4.4886,4.4886,0,0,1-1.3671,1.8776A4.9289,4.9289,0,0,1,386.9838,227.3951Zm9.94,6.7985a3.63,3.63,0,0,0,1.7944.7515c.3812.0394,1.159.12,1.56-.37a1.354,1.354,0,0,0,.21-1.0517,2.0661,2.0661,0,0,0-.7362-1.17c-.0372-.0329-.0789-.07-.12-.11a5.3892,5.3892,0,0,1-2.1471,1.6936C397.2944,234.0314,397.1038,234.1169,396.9241,234.1936Z" transform="translate(-312.546 -193.6799)"/>
      </g>
      <g>
        <path class="cls-5" d="M384.0019,245.8888c.0132-.0066.0241-.0131.0351-.0175a5.1471,5.1471,0,0,1,1.194-.4141c.2586-.0723.596-.1687,1.0626-.3133.2345-.0723.504-.1556.8129-.2563.5806-.1863,1.0275-.34,1.3825-.4711a5.1073,5.1073,0,0,0,1.4613-.71,5.6711,5.6711,0,0,0,1.6586-1.9389,5.5086,5.5086,0,0,0,.21-4.4192,5.0037,5.0037,0,0,0-1.5139-1.9718,9.144,9.144,0,0,0-1.1328-.7647,6.1483,6.1483,0,0,0-.6441-.34,11.7016,11.7016,0,0,0-1.5161-.5258c-.0417-.0131-.0833-.0241-.1249-.0372-.195-.057-.3768-.1074-.5631-.1556-.3264-.0811-.6638-.1534-1.0933-.2278-.322-.0548-.6989-.114-1.1612-.1819-.195-.0285-.4053-.057-.6331-.09-.5543-.0767-1.2182-.1687-2.0223-.2783-.7646-.1029-1.0034-.138-1.06-.1446.0109,0,.0263.0022.0329.0022-.0307-.0088-.3133-.0548-1.6476-.2476a13.4669,13.4669,0,0,1-3.37-.8128c-1.0166-.41-1.3715-.7318-1.5008-1.1415a1.2343,1.2343,0,0,1,.18-1.113,1.4385,1.4385,0,0,1,1.2926-.4206c.5215.0744.6967.3746,1.262.7208a4.8288,4.8288,0,0,0,1.8053.6025,6.4848,6.4848,0,0,0,3.637-.482,1.1868,1.1868,0,0,0,.7274-.6989,1.0419,1.0419,0,0,0-.2454-.8589,5.899,5.899,0,0,0-2.4648-1.8689,9.0017,9.0017,0,0,0-3.7115-.723l-.0043.0022a7.7727,7.7727,0,0,0-1.0057.0877c-1.2138.1818-3.2382.4864-4.3008,2.1953a4.1611,4.1611,0,0,0-.4207,3.5186q.0264.0756.0592.1512a3.3214,3.3214,0,0,0,.2936.5456,5.1027,5.1027,0,0,0,2.0836,1.65c.2213.11.4425.21.6638.3a21.1611,21.1611,0,0,0,6.437,1.3365c1.2708.1183,2.5722.2256,3.9065.4316.3856.0591.7756.1271,1.1677.2059.3594.0723.7209.1534,1.0846.2476.12.0285.241.0614.3615.0942a3.5863,3.5863,0,0,1,2.1361,1.3518,3.5134,3.5134,0,0,1,.12,3.3084,4.4721,4.4721,0,0,1-2.6357,2.1339c-.1424.0548-.276.1052-.4031.1512a3.5168,3.5168,0,0,1-.6639.1884c-.2629.0526-.5148.0745-1.0823.2235-.035.0088-.07.02-.1073.0285a14.9548,14.9548,0,0,0-2.0683.6748,5.2085,5.2085,0,0,0-2.4758,1.9872,4.7241,4.7241,0,0,0-.6375,2.7321,6,6,0,0,0,2.6773,4.3424c.0285.0176.057.0351.0855.05a9.6754,9.6754,0,0,0,2.3925.9443c.4162.114.8281.21,1.2159.2914.37.0789.7165.1446,1.0254.2038l.0131.0022a3.3786,3.3786,0,0,1,1.8821.8106,2.8757,2.8757,0,0,1,.8106,2.0157,2.8047,2.8047,0,0,1-.9311,1.9236,3.34,3.34,0,0,1-1.7747.7778c-.2213.0439-.4579.0942-.7208.1534-.1008.0241-.2016.046-.3024.07h-.0022c-.4162.0964-.83.195-1.2335.3067a10.21,10.21,0,0,0-1.5621.5544,5.2925,5.2925,0,0,0-1.3211.8435,4.3472,4.3472,0,0,0-1.5622,3.3674c.2038,1.9544,2.3268,3.0761,3.0279,3.396.12.0548.1972.0854.2191.0942a10.3727,10.3727,0,0,0,1.1765.3506c.3089.0766.6573.1577,1.0473.25.0723.0176.14.0329.2081.0482.401.09.7252.1578.9991.23a2.29,2.29,0,0,1,1.17.5937,2.0233,2.0233,0,0,1,.631,1.354,2.2282,2.2282,0,0,1-.9334,1.6542,2.2044,2.2044,0,0,1-.8764.3944c-.2366.0679-.5521.1577-.99.287q-.1543.0459-.3286.0986c-.39.1183-.6967.2125-.94.2892a6.3441,6.3441,0,0,0-.6836.2519l-.0526.0263a3.85,3.85,0,0,0-1.9017,1.63,2.5025,2.5025,0,0,0,1.744,3.8473,2.5958,2.5958,0,0,1-.9925-1.8032,2.6446,2.6446,0,0,1,.8128-1.985,2.8859,2.8859,0,0,1,1.0692-.6726c.2695-.1095.5872-.2191.975-.3505.1051-.0351.2037-.068.2979-.0964.4032-.1271.7143-.2016.986-.2673a5.9568,5.9568,0,0,0,1.0188-.3024c.1336-.0548.276-.1227.4338-.2059a3.7127,3.7127,0,0,0,1.2028-.872,3.0854,3.0854,0,0,0-.0592-4.18,3.1227,3.1227,0,0,0-.9289-.6639c-.1468-.0767-.3177-.1556-.5149-.2388a8.564,8.564,0,0,0-1.1349-.39c-.3615-.0964-.6836-.1556-1.0013-.2147a8.8047,8.8047,0,0,1-1.2532-.298,6.6756,6.6756,0,0,1-.8807-.3593,2.9346,2.9346,0,0,1-1.2642-1.021,2.3486,2.3486,0,0,1-.39-1.3255,2.4218,2.4218,0,0,1,.7515-1.6235,3.1112,3.1112,0,0,1,1.5052-.78c.0788-.02.1774-.046.2913-.0766.3155-.0811.7537-.1972,1.24-.3331.3265-.092.6727-.1928,1.0188-.3a17.6217,17.6217,0,0,0,1.7747-.6463c.0219-.0088.0416-.02.0635-.0285a5.1954,5.1954,0,0,0,3.0673-2.8548,4.4952,4.4952,0,0,0-1.0823-4.2724,4.3062,4.3062,0,0,0-1.2335-.8983c-.287-.1468-.5784-.2716-.872-.3943a7.0916,7.0916,0,0,0-1.6936-.4623c-.276-.0548-.6069-.1249-1.0451-.2432-.0175-.0044-.0372-.011-.0569-.0154-.4316-.1183-.8151-.2212-1.1547-.32a3.6712,3.6712,0,0,1-2.2128-1.2445,3.19,3.19,0,0,1-.3922-2.4341A4.3674,4.3674,0,0,1,384.0019,245.8888ZM379.975,227.29c.173.0394.6792.1577.7427.4952.0548.2848-.2322.5915-.5171.6989a1.0977,1.0977,0,0,1-.8347-.1118,2.26,2.26,0,0,1-.9246-.7449A2.0418,2.0418,0,0,1,379.975,227.29Z" transform="translate(-312.546 -193.6799)"/>
        <path class="cls-5" d="M399.4218,227.8749c-1.06-1.7089-3.0849-2.0135-4.3008-2.1953a8.44,8.44,0,0,0-1.021-.09h-.0044a8.9878,8.9878,0,0,0-3.6939.723,5.9,5.9,0,0,0-2.467,1.8689,1.05,1.05,0,0,0-.2454.8589,1.1979,1.1979,0,0,0,.7274.6989,6.4844,6.4844,0,0,0,3.6369.482,4.8286,4.8286,0,0,0,1.8054-.6025c.5674-.3462.74-.6464,1.262-.7208a1.4386,1.4386,0,0,1,1.2926.4206,1.2356,1.2356,0,0,1,.1819,1.113c-.1293.41-.4842.7318-1.503,1.1415a13.4456,13.4456,0,0,1-3.37.8128c-1.3321.1928-1.6147.2367-1.6476.2476.0066,0,.0219-.0022.0329-.0022-.057.0066-.2936.0417-1.06.1446-.8151.1118-1.4811.2016-2.04.28q-.3714.0525-.6836.0986c-.4316.0635-.7865.1183-1.0933.1709-.46.081-.815.1555-1.1634.2453-.1621.0439-.3242.0877-.4929.1381-.0482.0153-.0964.0285-.1424.0416a11.2327,11.2327,0,0,0-1.5008.5236,5.8832,5.8832,0,0,0-.642.3374,9.3111,9.3111,0,0,0-1.1327.7647,5.0018,5.0018,0,0,0-1.5139,1.9718,5.5184,5.5184,0,0,0,.21,4.4192,5.6979,5.6979,0,0,0,1.6586,1.9389,5.1073,5.1073,0,0,0,1.4613.71c.3549.1315.8019.2848,1.3825.4711.2541.081.48.1533.6836.2169.5346.1665.9092.2738,1.1918.3527a6.1178,6.1178,0,0,1,1.06.3462c.0525.0263.11.0526.1708.0854a4.3643,4.3643,0,0,1,2.5854,2.5262,3.1692,3.1692,0,0,1-.3922,2.4341,3.886,3.886,0,0,1-2.3794,1.2905c-.2958.0854-.6244.1753-.9881.2738-.02.0044-.0394.011-.057.0154-.528.1424-.9.2169-1.2116.2782a6.3359,6.3359,0,0,0-1.527.4273c-.2914.1227-.585.2475-.87.3943a4.3437,4.3437,0,0,0-1.2357.8983,4.4952,4.4952,0,0,0-1.0824,4.2724,5.1958,5.1958,0,0,0,3.0674,2.8548c.0219.0087.0416.02.0635.0285a15.5847,15.5847,0,0,0,1.56.5762c.4185.1336.8436.2607,1.2379.37.3791.1074.73.2016,1.0166.2761.21.0548.3856.1008.5127.1336a3.0977,3.0977,0,0,1,1.503.78,2.4218,2.4218,0,0,1,.7515,1.6235,2.3137,2.3137,0,0,1-.39,1.3255,2.91,2.91,0,0,1-1.2642,1.021,6.91,6.91,0,0,1-1.1261.436c-.3506.0986-.6726.16-1.0035.2213a11.7042,11.7042,0,0,0-1.2554.2848,8.916,8.916,0,0,0-.8829.32c-.1972.0832-.3681.1621-.5149.2388a3.0632,3.0632,0,0,0-.929.6639,3.1625,3.1625,0,0,0-.8435,1.9565,3.2047,3.2047,0,0,0,.7822,2.2238,3.7351,3.7351,0,0,0,1.2028.872c.1578.0832.3.1511.4338.2059a4.5587,4.5587,0,0,0,.734.2344c.3418.0855.7186.16,1.2707.3353.0942.0284.1928.0613.298.0964.2585.0876.4842.1665.6858.241a3.2462,3.2462,0,0,1,1.3584.7821,2.645,2.645,0,0,1,.8128,1.985,2.5962,2.5962,0,0,1-.9925,1.8032,2.769,2.769,0,0,0,1.9543-1.503,2.7311,2.7311,0,0,0-.21-2.3443,3.85,3.85,0,0,0-1.9017-1.63l-.0526-.0263a8.0788,8.0788,0,0,0-.964-.34c-.1885-.0591-.4054-.1249-.6595-.2015-.1161-.0351-.2279-.068-.3287-.0986-.6331-.1885-1.0056-.287-1.2663-.3747a1.6489,1.6489,0,0,1-.6-.3067,2.235,2.235,0,0,1-.9333-1.6542,2.0127,2.0127,0,0,1,.6332-1.354,2.0475,2.0475,0,0,1,.9092-.5214c.3243-.1008.723-.1819,1.2576-.3024.0658-.0153.1359-.0306.2082-.0482.287-.0679.55-.1292.7931-.1884a11.8967,11.8967,0,0,0,1.4329-.4119c.02-.0088.0986-.0394.2191-.0942.7033-.3221,2.8241-1.4438,3.0279-3.396a4.3543,4.3543,0,0,0-1.5644-3.3674,5.2943,5.2943,0,0,0-1.3211-.8435,10.8886,10.8886,0,0,0-1.7725-.6113c-.3352-.09-.677-.1709-1.021-.25h-.0022c-.1008-.0241-.2015-.046-.3023-.07-.3462-.0789-.6529-.138-.929-.2016a3.05,3.05,0,0,1-1.5687-.73,2.814,2.814,0,0,1-.9311-1.9236,2.8828,2.8828,0,0,1,.8128-2.0157,3.1221,3.1221,0,0,1,1.7-.7756c.0657-.0131.1314-.0241.1928-.0372.3089-.0592.6551-.1249,1.0253-.2038.3331-.07.6836-.1511,1.0385-.2432a10.1041,10.1041,0,0,0,2.5722-.9925c.0285-.0153.057-.0328.0855-.05a6.007,6.007,0,0,0,2.6773-4.3424,4.7421,4.7421,0,0,0-.6376-2.7321,5.2028,5.2028,0,0,0-2.4779-1.9872,15.8015,15.8015,0,0,0-2.1756-.7033l-.0154-.0044a10.6826,10.6826,0,0,0-1.067-.2191,3.5182,3.5182,0,0,1-.6638-.1884c-.1622-.0591-.34-.1249-.5236-.1972a4.3841,4.3841,0,0,1-2.5131-2.0879,3.5075,3.5075,0,0,1,.12-3.3084,3.5825,3.5825,0,0,1,2.134-1.3518q.138-.0394.2761-.0723c.3922-.1029.7843-.1928,1.17-.27.3659-.0745.7274-.138,1.0868-.1928,1.3627-.2147,2.69-.3242,3.9875-.4447a21.2157,21.2157,0,0,0,6.426-1.33c.2257-.0942.4513-.195.6748-.3068a5.0983,5.0983,0,0,0,2.077-1.641,3.4352,3.4352,0,0,0,.3-.5543c.02-.046.0372-.092.0548-.14A4.1475,4.1475,0,0,0,399.4218,227.8749Zm-8.3234.4973a1.098,1.098,0,0,1-.8348.1118c-.2848-.1074-.574-.4141-.5192-.6989.0635-.3375.5718-.4558.7449-.4952a2.0419,2.0419,0,0,1,1.5337.3374A2.26,2.26,0,0,1,391.0984,228.3722Z" transform="translate(-312.546 -193.6799)"/>
      </g>
      <path class="cls-5" d="M386.3661,228.6761v.1317h-.0018C386.3652,228.7636,386.3661,228.72,386.3661,228.6761Z" transform="translate(-312.546 -193.6799)"/>
      <g>
        <path class="cls-5" d="M386.3661,219.3825v9.2936c0,.0442-.0009.0875-.0018.1317-.0027.1913-.0136.3825-.0217.5729-.0153.3707-.009.7406-.0117,1.1105l-.0054,2.2219-.0118,4.442-.0451,17.77-.0676,26.655-.2571,2.221c-.0911.74-.1777,1.48-.2752,2.22-.0929.74-.1921,1.48-.2932,2.22-.1082.7406-.2066,1.48-.3247,2.221-.1137-.7407-.2084-1.4813-.3131-2.2219-.0974-.7407-.193-1.4813-.2823-2.222-.0939-.7406-.1759-1.4813-.2634-2.2219l-.2463-2.2219.0676-26.655.0451-17.77.0118-4.4429.0054-2.221c-.0009-.37.0072-.7407-.0054-1.1105-.0073-.19-.0172-.3789-.02-.5675v-9.4253Z" transform="translate(-312.546 -193.6799)"/>
        <circle class="cls-5" cx="72.6099" cy="22.3403" r="2.8642"/>
      </g>
    </g>
  </g>
  <text class="cls-6" transform="translate(158.1386 52.474)">Dr Rajendra Gode</text>
  <text class="cls-7" transform="translate(158.1388 103.4715)">multispeciality &amp; general hospital</text>
</svg>
